
<svg xmlns="http://www.w3.org/2000/svg" width="400" height="400" viewBox="0 0 400 400" fill="none">
<g clip-path="url(#clip0_2715_1345)">
<path d="M0 200C0 89.5431 89.5431 0 200 0V0C310.457 0 400 89.5431 400 200V200C400 310.457 310.457 400 200 400V400C89.5431 400 0 310.457 0 200V200Z" fill="#ADABB8"/>
<path d="M151.764 153.964H250.228L235.871 115.443C235.313 113.862 234.293 112.486 232.943 111.493L151.764 153.964ZM151.493 108.243C154.985 98.8712 162.657 92.8569 171.114 92.8569H229.328C237.793 92.8569 245.471 98.8712 248.957 108.243L263.307 146.764C267.607 158.321 260.657 171.428 250.228 171.428H150.228C139.8 171.428 132.843 158.321 137.143 146.764L151.493 108.243ZM73.0998 253.964H171.364L157.021 215.443C156.459 213.86 155.434 212.484 154.078 211.493L73.0998 253.964ZM72.8283 208.243C76.3212 198.871 83.9998 192.857 92.4498 192.857H150.478C158.935 192.857 166.607 198.871 170.1 208.243L184.45 246.764C188.757 258.321 181.8 271.428 171.357 271.428H71.5498C61.1212 271.428 54.1712 258.321 58.4783 246.764L72.8283 208.243ZM329.185 253.964H230.257L311.9 211.5C313.171 212.4 314.207 213.757 314.843 215.45L329.185 253.964ZM249.593 192.857C241.135 192.857 233.464 198.871 229.978 208.243L215.621 246.764C211.328 258.321 218.278 271.428 228.714 271.428H329.185C339.614 271.428 346.571 258.321 342.264 246.764L327.907 208.243C324.443 198.871 316.757 192.857 308.307 192.857H249.593Z" fill="white"/>
</g>
<defs>
<clipPath id="clip0_2715_1345">
<rect width="400" height="400" fill="white"/>
</clipPath>
</defs>
</svg>