<svg xmlns="http://www.w3.org/2000/svg" width="400" height="400" viewBox="0 0 400 400" fill="none">
<g clip-path="url(#clip0_2715_1342)">
<path d="M0 200C0 89.5431 89.5431 0 200 0V0C310.457 0 400 89.5431 400 200V200C400 310.457 310.457 400 200 400V400C89.5431 400 0 310.457 0 200V200Z" fill="#D69A00"/>
<path d="M151.771 153.964H250.228L235.871 115.443C235.313 113.862 234.293 112.486 232.943 111.493L151.771 153.964ZM151.5 108.243C154.985 98.8712 162.657 92.8569 171.114 92.8569H229.335C237.793 92.8569 245.464 98.8712 248.957 108.243L263.307 146.764C267.614 158.321 260.657 171.428 250.228 171.428H150.228C139.8 171.428 132.85 158.321 137.15 146.764L151.507 108.243H151.5ZM73.1069 253.964H171.371L157.014 215.443C156.456 213.862 155.435 212.486 154.085 211.493L73.1069 253.964ZM72.8283 208.243C76.3212 198.871 83.9998 192.857 92.4498 192.857H150.478C158.935 192.857 166.614 198.871 170.1 208.243L184.45 246.764C188.757 258.321 181.807 271.428 171.371 271.428H71.5498C61.1212 271.428 54.1712 258.321 58.4783 246.764L72.8283 208.243ZM329.185 253.964H230.257L311.9 211.5C313.178 212.4 314.207 213.757 314.85 215.45L329.193 253.964H329.185ZM249.607 192.857C241.15 192.857 233.471 198.871 229.985 208.243L215.635 246.764C211.328 258.321 218.278 271.428 228.714 271.428H329.193C339.621 271.428 346.571 258.321 342.264 246.764L327.907 208.243C324.443 198.871 316.771 192.857 308.314 192.857H249.607Z" fill="white"/>
</g>
<defs>
<clipPath id="clip0_2715_1342">
<rect width="400" height="400" fill="white"/>
</clipPath>
</defs>
</svg>